<svg xmlns="http://www.w3.org/2000/svg" width="200" height="60" viewBox="0 0 200 60" fill="none"><g><rect width="200" height="60" fill="#fff"/><g><path d="M40.5 30c0-10.77 8.73-19.5 19.5-19.5s19.5 8.73 19.5 19.5-8.73 19.5-19.5 19.5S40.5 40.77 40.5 30zm19.5-16.5c-9.11 0-16.5 7.39-16.5 16.5s7.39 16.5 16.5 16.5 16.5-7.39 16.5-16.5-7.39-16.5-16.5-16.5zm0 30c-7.45 0-13.5-6.05-13.5-13.5S52.55 16.5 60 16.5 73.5 22.55 73.5 30 67.45 43.5 60 43.5zm0-24c-5.8 0-10.5 4.7-10.5 10.5S54.2 40.5 60 40.5 70.5 35.8 70.5 30 65.8 19.5 60 19.5zm0 18c-4.14 0-7.5-3.36-7.5-7.5s3.36-7.5 7.5-7.5 7.5 3.36 7.5 7.5-3.36 7.5-7.5 7.5z" fill="#222"/><text x="90" y="38" font-family="Arial, Helvetica, sans-serif" font-size="24" fill="#222">ESP32</text></g></g></svg>
